<?xml version="1.0" encoding="utf-8"?>
<!-- Generator: Adobe Illustrator 16.0.0, SVG Export Plug-In . SVG Version: 6.00 Build 0)  -->
<!DOCTYPE svg PUBLIC "-//W3C//DTD SVG 1.1//EN" "http://www.w3.org/Graphics/SVG/1.1/DTD/svg11.dtd">
<svg version="1.1" id="Capa_1" xmlns="http://www.w3.org/2000/svg" xmlns:xlink="http://www.w3.org/1999/xlink" x="0px" y="0px"
	 width="28.737px" height="31.313px" viewBox="0 0 28.737 31.313" enable-background="new 0 0 28.737 31.313" xml:space="preserve">
<g>
	<g>
		<g>
			<path fill="#222222" d="M14.368,14.994H7.052c-0.219,0-0.396,0.179-0.396,0.397c0,0.218,0.178,0.396,0.396,0.396h7.316
				c0.221,0,0.397-0.178,0.397-0.396C14.766,15.173,14.589,14.994,14.368,14.994z"/>
		</g>
	</g>
	<g>
		<g>
			<path fill="#222222" d="M28.317,0.422h-0.011C28.038,0.152,27.673,0,27.292,0H1.446C1.067,0,0.703,0.151,0.435,0.421
				C0.16,0.687,0.005,1.052,0.001,1.435c0,0.379,0.152,0.742,0.42,1.011c0.268,0.271,0.633,0.423,1.014,0.423h0.277v21.693
				c0.002,0.838,0.68,1.519,1.518,1.52h10.744v1.854c-0.308,0.076-0.589,0.232-0.812,0.457c-0.668,0.667-0.669,1.75,0,2.419v0.001
				c0.668,0.669,1.75,0.669,2.42,0.001c0,0,0-0.001,0.001-0.001c0.669-0.667,0.669-1.751,0.001-2.419c0,0,0-0.001-0.001-0.001
				c-0.224-0.225-0.507-0.383-0.815-0.457v-1.85h10.742c0.84-0.002,1.52-0.682,1.521-1.521V2.871h0.275
				c0.38,0,0.744-0.152,1.012-0.42c0.27-0.27,0.422-0.636,0.42-1.017C28.737,1.055,28.587,0.69,28.317,0.422z M15.021,28.94
				c0.359,0.361,0.359,0.944,0,1.305c-0.361,0.359-0.943,0.359-1.303,0c-0.359-0.36-0.359-0.943,0-1.305
				C14.077,28.583,14.659,28.583,15.021,28.94z M25.509,25.279H3.229c-0.401-0.001-0.726-0.326-0.728-0.726V2.871h23.732
				l0.003,21.683C26.235,24.953,25.91,25.278,25.509,25.279z M27.749,1.876c-0.121,0.12-0.283,0.188-0.455,0.188H1.446
				c-0.17,0-0.334-0.067-0.453-0.188c-0.121-0.12-0.188-0.282-0.188-0.453c0-0.17,0.066-0.332,0.188-0.454
				c0.119-0.12,0.283-0.187,0.453-0.187h25.846c0.17,0,0.334,0.066,0.453,0.187c0.12,0.122,0.189,0.284,0.189,0.454h0.001
				C27.936,1.594,27.868,1.756,27.749,1.876z"/>
		</g>
	</g>
	<g>
		<g>
			<path fill="#222222" d="M14.368,9.941H7.052c-0.219,0-0.396,0.176-0.396,0.396c0,0.219,0.178,0.397,0.396,0.397h7.316
				c0.221,0,0.397-0.179,0.397-0.397C14.766,10.117,14.589,9.941,14.368,9.941z"/>
		</g>
	</g>
	<g>
		<g>
			<path fill="#222222" d="M21.696,12.469H7.052c-0.219,0-0.396,0.178-0.396,0.396c0,0.22,0.178,0.397,0.396,0.397h14.645
				c0.22,0,0.396-0.178,0.396-0.397C22.093,12.646,21.916,12.469,21.696,12.469z"/>
		</g>
	</g>
	<g>
		<g>
			<path fill="#222222" d="M21.696,17.521H7.052c-0.219,0-0.396,0.177-0.396,0.396c0,0.219,0.178,0.396,0.396,0.396h14.645
				c0.22,0,0.396-0.177,0.396-0.396C22.093,17.697,21.916,17.521,21.696,17.521z"/>
		</g>
	</g>
</g>
</svg>
