<?xml version="1.0" encoding="utf-8"?>
<!-- Generator: Adobe Illustrator 16.0.0, SVG Export Plug-In . SVG Version: 6.00 Build 0)  -->
<!DOCTYPE svg PUBLIC "-//W3C//DTD SVG 1.1//EN" "http://www.w3.org/Graphics/SVG/1.1/DTD/svg11.dtd">
<svg version="1.1" id="Capa_1" xmlns="http://www.w3.org/2000/svg" xmlns:xlink="http://www.w3.org/1999/xlink" x="0px" y="0px"
	 width="23.242px" height="41.471px" viewBox="0 0 23.242 41.471" enable-background="new 0 0 23.242 41.471" xml:space="preserve">
<g>
	<path fill="#222222" d="M18.493,19.757H5.199V15.11c3.001-0.996,4.111-2.207,4.52-3.014c0.574,0.25,1.212,0.383,1.918,0.389h0.156
		c0.768-0.013,1.459-0.167,2.059-0.457c0.383,0.809,1.473,2.061,4.561,3.082L18.493,19.757z M8.072,5.159V5.118
		c0.161-3.504,2.745-3.78,3.538-3.78h0.216c0.787,0,3.377,0.276,3.539,3.78v0.041c0.007,0.034,0.337,3.277-1.178,4.979
		c-0.599,0.674-1.399,1.01-2.441,1.016h-0.041c-1.051-0.012-1.844-0.342-2.443-1.016C7.743,8.45,8.064,5.193,8.072,5.159
		L8.072,5.159z M19.504,14.054c-4.347-1.264-4.516-2.799-4.516-2.819v0.035h-0.047c0.081-0.081,0.162-0.163,0.242-0.249
		c1.85-2.079,1.541-5.639,1.508-5.99C16.51,1.317,13.959,0,11.826,0H11.61C9.479,0,6.921,1.317,6.747,5.03
		c-0.034,0.344-0.337,3.904,1.506,5.99c0.108,0.121,0.224,0.234,0.337,0.342c-0.142,0.393-0.855,1.63-4.469,2.685v1.119v4.79h15.27
		L19.504,14.054z"/>
	<g>
		<g>
			<path fill="#222222" d="M13.615,19.709h-1.43v-3.635c0.221-0.171,0.363-0.437,0.363-0.734c0-0.513-0.416-0.929-0.928-0.929
				s-0.928,0.416-0.928,0.929c0,0.298,0.144,0.563,0.363,0.734v3.635H9.629H8.5H0v4.745h1.956v17.017h19.331V24.454h1.955v-4.745
				h-8.499H13.615z M20.159,40.344H3.084v-15.89h17.075V40.344z M22.114,23.325h-0.827H1.956H1.129v-2.488h20.985V23.325z"/>
			<path fill="#222222" d="M16.924,28.774H6.318v5.741h10.605V28.774z"/>
		</g>
	</g>
</g>
</svg>
