<?xml version="1.0" encoding="utf-8"?>
<!-- Generator: Adobe Illustrator 16.0.0, SVG Export Plug-In . SVG Version: 6.00 Build 0)  -->
<!DOCTYPE svg PUBLIC "-//W3C//DTD SVG 1.1//EN" "http://www.w3.org/Graphics/SVG/1.1/DTD/svg11.dtd">
<svg version="1.1" id="Capa_1" xmlns="http://www.w3.org/2000/svg" xmlns:xlink="http://www.w3.org/1999/xlink" x="0px" y="0px"
	 width="29.701px" height="34.633px" viewBox="0 0 29.701 34.633" enable-background="new 0 0 29.701 34.633" xml:space="preserve">
<g>
	<path fill="#919191" d="M24.618,33.066H4.565c-0.439,0-0.791,0.351-0.791,0.788c0,0.431,0.36,0.792,0.791,0.792h20.053
		c0.438,0,0.79-0.352,0.79-0.792C25.408,33.417,25.056,33.066,24.618,33.066z"/>
	<path fill="#919191" d="M22.582,1.407H7.119c-3.355,0-6.084,2.73-6.084,6.086v14.785c0,3.356,2.729,6.085,6.084,6.085h15.463
		c3.356,0,6.084-2.729,6.084-6.085V7.493C28.666,4.138,25.938,1.407,22.582,1.407z M7.119,3.436h15.463
		c2.014,0,3.673,1.476,3.988,3.401l-11.605,6.836L3.114,6.999C3.36,4.996,5.051,3.436,7.119,3.436z M22.582,26.335H7.119
		c-2.235,0-4.055-1.819-4.055-4.057V9.296l11.414,6.431c0.157,0.087,0.327,0.131,0.499,0.131c0.178,0,0.354-0.046,0.513-0.141
		L26.638,9.15v13.128C26.638,24.516,24.821,26.335,22.582,26.335z"/>
</g>
</svg>
