<?xml version="1.0" encoding="utf-8"?>
<!-- Generator: Adobe Illustrator 16.0.0, SVG Export Plug-In . SVG Version: 6.00 Build 0)  -->
<!DOCTYPE svg PUBLIC "-//W3C//DTD SVG 1.1//EN" "http://www.w3.org/Graphics/SVG/1.1/DTD/svg11.dtd">
<svg version="1.1" id="Capa_1" xmlns="http://www.w3.org/2000/svg" xmlns:xlink="http://www.w3.org/1999/xlink" x="0px" y="0px"
	 width="29.701px" height="34.633px" viewBox="0 0 29.701 34.633" enable-background="new 0 0 29.701 34.633" xml:space="preserve">
<g>
	<path fill="#919191" d="M4.453,34.633h20.273c0.443,0,0.8-0.357,0.8-0.799c0-0.446-0.356-0.799-0.8-0.799H4.453
		c-0.442,0-0.799,0.353-0.799,0.799C3.654,34.269,4.019,34.633,4.453,34.633L4.453,34.633z M4.453,34.633"/>
	<path fill="#919191" d="M23.111,3.18V3.164c0-1.389-1.238-2.519-2.756-2.519s-2.753,1.13-2.753,2.519v-0.05h-5.598v0.15
		c0-1.405-1.264-2.549-2.821-2.549c-1.557,0-2.821,1.144-2.821,2.549V3.204C3.488,3.637,1.27,6.101,1.27,9.095V22.63
		c0,3.299,2.685,5.98,5.983,5.98h15.198c3.297,0,5.98-2.682,5.98-5.98V9.095C28.432,6.023,26.093,3.515,23.111,3.18z M19.31,3.164
		c0-0.44,0.479-0.812,1.046-0.812c0.568,0,1.048,0.371,1.048,0.812v-0.05V5.01c0,0.036-0.022,0.064-0.025,0.099
		c-0.068,0.395-0.499,0.714-1.022,0.714c-0.521,0-0.951-0.319-1.02-0.714C19.329,5.074,19.31,5.046,19.31,5.01V3.114V3.164z
		 M8.205,3.265c0-0.384,0.446-0.705,0.979-0.705s0.978,0.321,0.978,0.705v-0.15v1.938c0,0.02-0.013,0.038-0.016,0.057
		c-0.043,0.354-0.459,0.646-0.962,0.646s-0.918-0.293-0.96-0.646C8.222,5.09,8.205,5.071,8.205,5.052V3.114V3.265z M26.438,22.63
		c0,2.199-1.789,3.988-3.986,3.988H7.253c-2.2,0-3.989-1.789-3.989-3.988V9.095c0-1.898,1.338-3.484,3.116-3.884
		C6.474,6.54,7.69,7.598,9.184,7.598c1.534,0,2.781-1.111,2.813-2.489h5.616c0.058,1.344,1.259,2.421,2.742,2.421
		c1.458,0,2.644-1.043,2.737-2.356c1.892,0.31,3.345,1.943,3.345,3.922V22.63z"/>
	<g>
		<path fill="#919191" d="M15.187,19.073c0,0.545-0.082,1.059-0.24,1.539c-0.212,0.653-0.576,1.155-1.083,1.5
			c-0.509,0.349-1.138,0.524-1.886,0.524c-0.759,0-1.407-0.198-1.939-0.594c-0.536-0.397-0.901-0.922-1.091-1.572
			c-0.099-0.332-0.157-0.724-0.179-1.173c0-0.141,0.068-0.209,0.207-0.209h0.74c0.139,0,0.209,0.068,0.209,0.209
			c0.02,0.361,0.053,0.636,0.097,0.819c0.117,0.459,0.347,0.827,0.689,1.105c0.341,0.279,0.766,0.416,1.267,0.416
			c0.462,0,0.847-0.109,1.164-0.326c0.314-0.221,0.541-0.532,0.682-0.939c0.15-0.395,0.224-0.841,0.224-1.333
			c0-0.63-0.096-1.155-0.287-1.572c-0.301-0.77-0.901-1.155-1.8-1.155c-0.17,0-0.342,0.033-0.511,0.097
			c-0.066,0.021-0.104,0.033-0.113,0.033c-0.063,0-0.117-0.033-0.159-0.097l-0.354-0.419c-0.044-0.064-0.063-0.111-0.063-0.144
			s0.02-0.078,0.063-0.145l2.791-3.271c0.055-0.066,0.036-0.101-0.049-0.101H9.074c-0.139,0-0.21-0.065-0.21-0.205v-0.58
			c0-0.137,0.071-0.208,0.21-0.208h5.84c0.14,0,0.21,0.071,0.21,0.208v0.643c0,0.087-0.036,0.172-0.096,0.258l-2.587,3.098
			c-0.019,0.021-0.024,0.04-0.014,0.062c0.012,0.022,0.038,0.032,0.08,0.032c1.165,0.076,1.952,0.616,2.356,1.619
			C15.081,17.72,15.187,18.346,15.187,19.073z"/>
		<path fill="#919191" d="M19.166,11.273h0.788c0.136,0,0.208,0.071,0.208,0.208v10.815c0,0.142-0.072,0.209-0.208,0.209h-0.721
			c-0.145,0-0.212-0.067-0.212-0.209v-9.771c0-0.033-0.009-0.054-0.023-0.063c-0.018-0.011-0.04-0.011-0.073,0l-1.686,0.704
			c-0.021,0.013-0.054,0.017-0.093,0.017c-0.1,0-0.146-0.06-0.146-0.176V12.51c0-0.104,0.047-0.187,0.146-0.243l1.746-0.93
			C18.968,11.298,19.06,11.273,19.166,11.273z"/>
	</g>
</g>
</svg>
