<?xml version="1.0" encoding="utf-8"?>
<!-- Generator: Adobe Illustrator 16.0.0, SVG Export Plug-In . SVG Version: 6.00 Build 0)  -->
<!DOCTYPE svg PUBLIC "-//W3C//DTD SVG 1.1//EN" "http://www.w3.org/Graphics/SVG/1.1/DTD/svg11.dtd">
<svg version="1.1" id="Capa_1" xmlns="http://www.w3.org/2000/svg" xmlns:xlink="http://www.w3.org/1999/xlink" x="0px" y="0px"
	 width="39.498px" height="38.7px" viewBox="0 0 39.498 38.7" enable-background="new 0 0 39.498 38.7" xml:space="preserve">
<g>
	<g>
		<g>
			<path fill="#FFFFFF" d="M9.725,13.341h25.279c0.971,0,1.762-0.786,1.762-1.76s-0.791-1.763-1.762-1.763H9.506l7.082-6.916
				c0.688-0.688,0.688-1.721,0-2.405c-0.688-0.688-1.803-0.649-2.49,0.036L4.117,10.54c-0.33,0.328-0.516,0.789-0.516,1.258
				c0,0.464,0.186,0.918,0.516,1.252l9.98,9.979c0.344,0.343,0.795,0.52,1.246,0.52c0.453,0,0.904-0.172,1.248-0.517
				c0.688-0.688,0.688-1.969,0-2.656L9.725,13.341z M9.725,13.341"/>
		</g>
	</g>
	<path fill="#FFFFFF" d="M38.498,38.7H1c-0.553,0-1-0.447-1-1s0.447-1,1-1h37.498c0.553,0,1,0.447,1,1S39.051,38.7,38.498,38.7z"/>
</g>
</svg>
