<?xml version="1.0" encoding="utf-8"?>
<!-- Generator: Adobe Illustrator 16.0.0, SVG Export Plug-In . SVG Version: 6.00 Build 0)  -->
<!DOCTYPE svg PUBLIC "-//W3C//DTD SVG 1.1//EN" "http://www.w3.org/Graphics/SVG/1.1/DTD/svg11.dtd">
<svg version="1.1" id="Capa_1" xmlns="http://www.w3.org/2000/svg" xmlns:xlink="http://www.w3.org/1999/xlink" x="0px" y="0px"
	 width="29.619px" height="29.617px" viewBox="0 0 29.619 29.617" enable-background="new 0 0 29.619 29.617" xml:space="preserve">
<g>
	<g>
		<path fill="#222222" d="M26.328,3.65V0.642h-2.164V3.65h-2.99v2.164h2.99v3.008h2.164V5.814h3.008V3.65H26.328z M26.328,3.65"/>
		<path fill="#222222" d="M14.81,29.617C6.644,29.617,0,22.975,0,14.809S6.644,0,14.81,0c2,0,3.938,0.391,5.763,1.162l-0.325,0.77
			c-1.72-0.729-3.55-1.098-5.438-1.098c-7.706,0-13.975,6.269-13.975,13.975S7.104,28.783,14.81,28.783s13.975-6.269,13.975-13.975
			c0-1.604-0.27-3.178-0.801-4.675l0.786-0.278c0.563,1.587,0.85,3.254,0.85,4.953C29.619,22.975,22.975,29.617,14.81,29.617z"/>
		<g>
			<path fill="#222222" d="M14.137,9.354c-0.201-0.192-0.301-0.442-0.301-0.75c0-0.306,0.1-0.553,0.301-0.739
				c0.199-0.187,0.459-0.28,0.779-0.28s0.58,0.094,0.78,0.28s0.3,0.434,0.3,0.739c0,0.308-0.1,0.558-0.3,0.75
				c-0.2,0.194-0.46,0.29-0.78,0.29S14.336,9.549,14.137,9.354z M14.216,21.325v-9.601c0-0.173,0.087-0.26,0.261-0.26h0.899
				c0.173,0,0.261,0.087,0.261,0.26v9.601c0,0.173-0.088,0.26-0.261,0.26h-0.899C14.303,21.585,14.216,21.498,14.216,21.325z"/>
		</g>
	</g>
</g>
</svg>
