<?xml version="1.0" encoding="utf-8"?>
<!-- Generator: Adobe Illustrator 16.0.0, SVG Export Plug-In . SVG Version: 6.00 Build 0)  -->
<!DOCTYPE svg PUBLIC "-//W3C//DTD SVG 1.1//EN" "http://www.w3.org/Graphics/SVG/1.1/DTD/svg11.dtd">
<svg version="1.1" id="Capa_1" xmlns="http://www.w3.org/2000/svg" xmlns:xlink="http://www.w3.org/1999/xlink" x="0px" y="0px"
	 width="29.701px" height="34.633px" viewBox="0 0 29.701 34.633" enable-background="new 0 0 29.701 34.633" xml:space="preserve">
<g>
	<path fill="#919191" d="M4.196,25.187c2.699,2.783,6.475,4.524,10.654,4.524c8.172,0,14.826-6.655,14.826-14.825
		c0-8.171-6.654-14.825-14.826-14.825c-8.169,0-14.826,6.654-14.826,14.825c0,3.896,1.521,7.447,3.984,10.095
		C4.059,25.064,4.129,25.126,4.196,25.187L4.196,25.187z M14.851,28.003c-3.223,0-6.188-1.172-8.472-3.109
		c3.844-1.277,5.266-2.83,5.791-3.862c0.732,0.319,1.552,0.491,2.456,0.498h0.198c0.983-0.017,1.872-0.216,2.639-0.586
		c0.49,1.038,1.888,2.641,5.844,3.95C21.031,26.831,18.076,28.003,14.851,28.003L14.851,28.003z M10.061,12.145v-0.051
		c0.205-4.492,3.515-4.847,4.532-4.847h0.276c1.008,0,4.325,0.354,4.532,4.847v0.051c0.01,0.043,0.432,4.197-1.51,6.377
		c-0.765,0.863-1.789,1.293-3.126,1.303h-0.054c-1.344-0.016-2.362-0.439-3.129-1.303C9.637,16.36,10.05,12.188,10.061,12.145
		L10.061,12.145z M14.851,1.769c7.233,0,13.118,5.885,13.118,13.117c0,3.309-1.241,6.344-3.265,8.655
		c-5.568-1.621-5.785-3.587-5.785-3.614v0.045h-0.06c0.104-0.104,0.207-0.209,0.311-0.318c2.371-2.665,1.974-7.223,1.931-7.673
		c-0.232-4.757-3.499-6.445-6.231-6.445h-0.276c-2.733,0-6.008,1.688-6.233,6.445c-0.043,0.438-0.432,5,1.931,7.673
		c0.141,0.155,0.287,0.301,0.433,0.438c-0.183,0.501-1.095,2.088-5.725,3.44c-2.033-2.312-3.267-5.337-3.267-8.646
		C1.731,7.653,7.619,1.769,14.851,1.769L14.851,1.769z M14.851,1.769"/>
	<path fill="#919191" d="M4.822,34.633h20.049c0.44,0,0.793-0.35,0.793-0.79c0-0.437-0.353-0.79-0.793-0.79H4.822
		c-0.438,0-0.79,0.354-0.79,0.79C4.032,34.274,4.392,34.633,4.822,34.633L4.822,34.633z M4.822,34.633"/>
</g>
</svg>
