<?xml version="1.0" encoding="utf-8"?>
<!-- Generator: Adobe Illustrator 16.0.0, SVG Export Plug-In . SVG Version: 6.00 Build 0)  -->
<!DOCTYPE svg PUBLIC "-//W3C//DTD SVG 1.1//EN" "http://www.w3.org/Graphics/SVG/1.1/DTD/svg11.dtd">
<svg version="1.1" id="Capa_1" xmlns="http://www.w3.org/2000/svg" xmlns:xlink="http://www.w3.org/1999/xlink" x="0px" y="0px"
	 width="40.688px" height="44.426px" viewBox="0 0 40.688 44.426" enable-background="new 0 0 40.688 44.426" xml:space="preserve">
<g>
	<path fill="#222222" d="M35.503,44.426c-0.088,0-0.178-0.019-0.262-0.055l-9.869-4.328c-1.673,0.428-3.361,0.646-5.027,0.646
		C9.126,40.688,0,31.562,0,20.345S9.126,0,20.345,0c11.217,0,20.344,9.127,20.344,20.345c0,4.975-1.826,9.756-5.148,13.494
		l0.611,9.896c0.014,0.226-0.09,0.443-0.276,0.573C35.765,44.386,35.634,44.426,35.503,44.426z M26.271,39.018l8.518,3.734
		l-0.563-9.105c-0.011-0.176,0.051-0.349,0.169-0.479c3.221-3.527,4.994-8.082,4.994-12.823c0-10.501-8.543-19.044-19.043-19.044
		C9.843,1.301,1.3,9.844,1.3,20.345s8.543,19.043,19.045,19.043c1.707,0,3.443-0.244,5.159-0.727
		C25.815,38.576,26.139,38.727,26.271,39.018z"/>
	<g>
		<path fill="#222222" d="M28.738,17.31H11.95c-0.359,0-0.65-0.291-0.65-0.65s0.291-0.65,0.65-0.65h16.788
			c0.358,0,0.649,0.291,0.649,0.65S29.097,17.31,28.738,17.31z"/>
		<path fill="#222222" d="M28.738,24.23H11.95c-0.359,0-0.65-0.291-0.65-0.65s0.291-0.65,0.65-0.65h16.788
			c0.358,0,0.649,0.291,0.649,0.65S29.097,24.23,28.738,24.23z"/>
	</g>
</g>
</svg>
