<?xml version="1.0" encoding="utf-8"?>
<!-- Generator: Adobe Illustrator 16.0.0, SVG Export Plug-In . SVG Version: 6.00 Build 0)  -->
<!DOCTYPE svg PUBLIC "-//W3C//DTD SVG 1.1//EN" "http://www.w3.org/Graphics/SVG/1.1/DTD/svg11.dtd">
<svg version="1.1" id="Capa_1" xmlns="http://www.w3.org/2000/svg" xmlns:xlink="http://www.w3.org/1999/xlink" x="0px" y="0px"
	 width="35.067px" height="42.608px" viewBox="0 0 35.067 42.608" enable-background="new 0 0 35.067 42.608" xml:space="preserve">
<g>
	<g>
		<path fill="#222222" d="M2.48,42.434H0L3.721,25.07h2.48l3.721,17.363h-2.48l-0.93-4.341H3.41L2.48,42.434z M4.961,28.791
			l-1.24,7.441h2.48L4.961,28.791z"/>
		<path fill="#222222" d="M17.447,42.434h-4.342V25.07h3.721c3.131,0,5.291,1.279,5.291,4.341c0,2.258-0.998,3.217-2.811,3.721
			c1.929,0.64,3.102,1.754,3.102,4.341C22.408,40.534,20.509,42.434,17.447,42.434z M19.928,29.411c0-2.451-1.899-2.48-4.342-2.48
			v5.581h1.24C18.881,32.512,19.928,31.504,19.928,29.411z M16.826,34.372h-1.24v6.201h1.24c2.142,0,3.102-0.931,3.102-3.101
			S18.968,34.372,16.826,34.372z"/>
		<path fill="#222222" d="M30.445,42.608c-3.73,0-4.768-2.655-4.768-6.386v-4.951c0-3.73,1.037-6.376,4.768-6.376
			c3.498,0,4.622,2.268,4.622,5.756h-2.48c0-2.112-0.067-3.721-2.142-3.721c-2.073,0-2.287,1.608-2.287,3.721v6.201
			c0,1.899,0.398,3.721,2.287,3.721c1.899,0,2.142-1.821,2.142-3.721v-0.62h2.48v0.62C35.067,40.302,33.924,42.608,30.445,42.608z"
			/>
	</g>
	<g>
		<g>
			<g>
				<path fill="#222222" d="M20.103,5.479l-1.78,1.781l-4.149-4.261l1.78-1.778c0.362-0.364,0.812-0.471,1.174-0.107l3.094,3.099
					C20.595,4.586,20.476,5.105,20.103,5.479z M8.205,17.588L3.633,13.16l9.645-9.804l4.609,4.61l-9.835,9.763L8.205,17.588z
					 M3.255,13.934l4.203,4.054l-5.704,1.528l1.502-5.563L3.255,13.934z M20.566,3.047l-2.34-2.344
					c-0.457-0.459-2.107-1.323-3.426,0L2.939,12.572c-0.104,0.104-0.179,0.229-0.217,0.37l-1.787,6.365
					c-0.084,0.296,0.004,0.61,0.216,0.831c0.216,0.221,0.648,0.259,0.831,0.216l6.361-1.792c0.142-0.035,0.267-0.111,0.37-0.215
					L20.566,6.479C21.511,5.533,21.511,3.996,20.566,3.047z"/>
			</g>
		</g>
		<rect x="0.498" y="19.636" fill="#222222" width="20.679" height="1.087"/>
	</g>
</g>
</svg>
