<?xml version="1.0" encoding="utf-8"?>
<!-- Generator: Adobe Illustrator 16.0.0, SVG Export Plug-In . SVG Version: 6.00 Build 0)  -->
<!DOCTYPE svg PUBLIC "-//W3C//DTD SVG 1.1//EN" "http://www.w3.org/Graphics/SVG/1.1/DTD/svg11.dtd">
<svg version="1.1" id="Capa_1" xmlns="http://www.w3.org/2000/svg" xmlns:xlink="http://www.w3.org/1999/xlink" x="0px" y="0px"
	 width="29.27px" height="43.447px" viewBox="0 0 29.27 43.447" enable-background="new 0 0 29.27 43.447" xml:space="preserve">
<g>
	<g>
		<path fill="#222222" d="M2.582,25.578h1.896V43.27H1.95v-13.9H0.055v-1.896C1.101,27.099,2.089,26.536,2.582,25.578z"/>
		<path fill="#222222" d="M12.796,27.474c-1.51,0-1.895,1.619-1.895,3.159v0.632H8.374v-0.632c0-3.169,1.254-5.232,4.422-5.232
			c2.912,0,4.424,1.728,4.424,4.601c0,2.29-0.919,3.663-1.896,5.055l-4.422,5.687h6.318v2.527H8.364v-2.527l4.432-6.318
			c0.938-1.333,1.896-2.448,1.896-4.423C14.692,28.698,14.1,27.474,12.796,27.474z"/>
		<path fill="#222222" d="M24.847,25.4c2.912,0,4.423,1.728,4.423,4.601c0,2.054-0.997,3.317-2.527,3.791
			c1.659,0.553,2.527,2.123,2.527,4.423c0,3.169-1.254,5.232-4.423,5.232c-2.912,0-4.423-1.728-4.423-4.601v-0.632h2.527
			c0,1.757,0.197,3.159,1.896,3.159s1.896-1.402,1.896-3.159c0-1.896-0.632-3.159-2.527-3.159v-2.527
			c1.847,0,2.527-0.671,2.527-2.527c0-1.54-0.385-2.527-1.896-2.527c-1.698,0-1.896,1.402-1.896,3.159h-2.527v-0.632
			C20.424,27.138,21.954,25.4,24.847,25.4z"/>
	</g>
	<g>
		<g>
			<g>
				<path fill="#222222" d="M19.991,5.587l-1.814,1.816L13.944,3.06l1.816-1.814c0.369-0.371,0.827-0.48,1.197-0.109l3.154,3.16
					C20.493,4.677,20.372,5.206,19.991,5.587z M7.86,17.935L3.197,13.42l9.835-9.996l4.701,4.7L7.703,18.08L7.86,17.935z
					 M2.812,14.21l4.287,4.133l-5.816,1.559l1.53-5.674L2.812,14.21z M20.466,3.108l-2.387-2.391c-0.467-0.469-2.149-1.349-3.494,0
					L2.489,12.821c-0.105,0.105-0.182,0.232-0.22,0.377l-1.823,6.49c-0.085,0.302,0.004,0.623,0.221,0.849
					c0.221,0.225,0.661,0.265,0.848,0.22l6.486-1.827c0.145-0.036,0.271-0.114,0.377-0.22L20.466,6.605
					C21.429,5.644,21.429,4.075,20.466,3.108z"/>
			</g>
		</g>
		<rect y="20.024" fill="#222222" width="21.087" height="1.107"/>
	</g>
</g>
</svg>
